<?xml version="1.0" encoding="UTF-8" standalone="no"?>
<!DOCTYPE svg PUBLIC "-//W3C//DTD SVG 1.1//EN"
 "http://www.w3.org/Graphics/SVG/1.1/DTD/svg11.dtd">
<!-- Generated by graphviz version 8.0.5 (20230430.1635)
 -->
<!-- Title: My Dummy Network Pages: 1 -->
<svg width="830pt" height="584pt"
 viewBox="0.00 0.00 829.98 584.00" xmlns="http://www.w3.org/2000/svg" xmlns:xlink="http://www.w3.org/1999/xlink">
<g id="graph0" class="graph" transform="scale(1 1) rotate(0) translate(4 580)">
<title>My Dummy Network</title>
<g id="a_graph0"><a xlink:title="Network: My Dummy Network&#10;Buses: 2 (out of 2)&#10;Generators: 2 (out of 2)&#10;Loads: 2 (out of 2)&#10;Stores: 1 (out of 1)&#10;Storage units: 1 (out of 1)&#10;Links: 1 (out of 1)&#10;Lines: 0 (out of 0)&#10;Snapshots: 1">
<polygon fill="white" stroke="none" points="-4,4 -4,-580 825.98,-580 825.98,4 -4,4"/>
<text text-anchor="middle" x="410.99" y="-559.4" font-family="Times,serif" font-size="14.00">My Dummy Network</text>
<text text-anchor="middle" x="410.99" y="-510.6" font-family="Times,serif" font-size="14.00"> &#160;&#160;&#160;&#160;&#160;&#160;&#160;&#160;&#160;&#160;</text>
</a>
</g>
<!-- electricity (bus) -->
<g id="node1" class="node">
<title>electricity (bus)</title>
<g id="a_node1"><a xlink:title="Bus: electricity&#10;Carrier: AC&#10;Unit: MW&#10;Generators: 2&#10;Loads: 1&#10;Stores: 1&#10;Storage units: 1&#10;Incoming links: 0&#10;Outgoing links: 1&#10;Lines: 0&#10;&#10;Power time series: N/A MW">
<polygon fill="none" stroke="none" stroke-width="7.3" points="588.6,-350.2 351,-350.2 351,-328.6 588.6,-328.6 588.6,-350.2"/>
<polyline fill="none" stroke="black" stroke-width="7.3" points="351,-328.6 588.6,-328.6"/>
<text text-anchor="start" x="440.1" y="-336.7" font-family="Courier New" font-size="9.00" fill="red">electricity</text>
</a>
</g>
</g>
<!-- hydrogen (bus) -->
<g id="node2" class="node">
<title>hydrogen (bus)</title>
<g id="a_node2"><a xlink:title="Bus: hydrogen&#10;Carrier: AC&#10;Unit: MW&#10;Generators: 0&#10;Loads: 1&#10;Stores: 0&#10;Storage units: 0&#10;Incoming links: 1&#10;Outgoing links: 0&#10;Lines: 0&#10;&#10;Power time series: N/A MW">
<polygon fill="none" stroke="none" stroke-width="7.3" points="237.6,-213.4 0,-213.4 0,-191.8 237.6,-191.8 237.6,-213.4"/>
<polyline fill="none" stroke="black" stroke-width="7.3" points="0,-191.8 237.6,-191.8"/>
<text text-anchor="start" x="97.2" y="-199.9" font-family="Courier New" font-size="9.00" fill="red">hydrogen</text>
</a>
</g>
</g>
<!-- electricity (bus)&#45;&gt;hydrogen (bus) -->
<g id="edge7" class="edge">
<title>electricity (bus)&#45;&gt;hydrogen (bus)</title>
<g id="a_edge7"><a xlink:title="Link: electrolysis&#10;From: electricity (bus0)&#10;To: hydrogen (bus1)&#10;Carrier: &#10;Extendable nominal power: False&#10;Nominal power: 0.00 MW&#10;Efficiency: 1.00&#10;Capital cost: 0.00 currency/MW&#10;Marginal cost: 0.00 currency/MWh&#10;&#10;Optimised nominal power: 0.00 MW&#10;Power time series (p0): N/A MW&#10;Power time series (p1): N/A MW">
<path fill="none" stroke="black" stroke-width="1.5" d="M442.69,-328.12C407.07,-314.62 348.99,-292.6 348.99,-292.6 348.99,-292.6 221.44,-243.29 156.24,-218.07"/>
<polygon fill="black" stroke="black" stroke-width="1.5" points="145.21,-213.81 158.35,-213.1 150.89,-215.74 156.49,-217.9 156.4,-218.14 156.31,-218.37 150.71,-216.21 154.45,-223.17 145.21,-213.81 145.21,-213.81"/>
</a>
</g>
<text text-anchor="start" x="349.8" y="-284.5" font-family="Courier New" font-size="9.00" fill="red">electrolysis</text>
</g>
<!-- transport (load) -->
<g id="node5" class="node">
<title>transport (load)</title>
<g id="a_node5"><a xlink:title="Load: transport&#10;Bus: electricity&#10;Carrier: &#10;Power set: 0.00 MW">
<polygon fill="none" stroke="black" stroke-width="2" points="375.8,-159.4 441.99,-224.2 309.61,-224.2 375.8,-159.4"/>
<text text-anchor="start" x="351.5" y="-199.9" font-family="Courier New" font-size="9.00" fill="red">transport</text>
</a>
</g>
</g>
<!-- electricity (bus)&#45;&gt;transport (load) -->
<g id="edge3" class="edge">
<title>electricity (bus)&#45;&gt;transport (load)</title>
<path fill="none" stroke="black" stroke-width="1.5" d="M462.73,-328.27C447.36,-306.23 410.63,-253.55 390.17,-224.21"/>
</g>
<!-- battery (store) -->
<g id="node7" class="node">
<title>battery (store)</title>
<g id="a_node7"><a xlink:title="Store: battery&#10;Bus: electricity&#10;Carrier: &#10;Extendable nominal energy: False&#10;Nominal energy: 0.00 MWh&#10;Power set: 0.00 MW&#10;Cyclic energy: False&#10;Capital cost: 0.00 currency/MW&#10;Marginal cost: 0.00 currency/MWh&#10;&#10;Optimised nominal energy: 0.00 MWh&#10;Energy time series: N/A MWh&#10;Power time series: N/A MW">
<polygon fill="none" stroke="black" stroke-width="2" points="615.2,-220.6 514.4,-220.6 514.4,-184.6 615.2,-184.6 615.2,-220.6"/>
<text text-anchor="start" x="545.9" y="-199.9" font-family="Courier New" font-size="9.00" fill="red">battery</text>
</a>
</g>
</g>
<!-- electricity (bus)&#45;&gt;battery (store) -->
<g id="edge5" class="edge">
<title>electricity (bus)&#45;&gt;battery (store)</title>
<path fill="none" stroke="black" stroke-width="1.5" d="M483.75,-318.6C500.17,-295.31 527.5,-256.52 545.83,-230.51"/>
<polygon fill="black" stroke="black" stroke-width="1.5" points="476.94,-328.27 479.44,-315.35 480.19,-323.22 483.65,-318.32 483.85,-318.46 484.06,-318.6 480.6,-323.51 488.27,-321.57 476.94,-328.27 476.94,-328.27"/>
<polygon fill="black" stroke="black" stroke-width="1.5" points="552.61,-220.9 550.11,-233.82 549.36,-225.95 545.9,-230.85 545.7,-230.71 545.49,-230.56 548.95,-225.66 541.28,-227.6 552.61,-220.9 552.61,-220.9"/>
</g>
<!-- hydro (storage unit) -->
<g id="node8" class="node">
<title>hydro (storage unit)</title>
<g id="a_node8"><a xlink:title="Storage unit: hydro&#10;Bus: electricity&#10;Carrier: &#10;Extendable nominal power: False&#10;Nominal power: 0.00 MW&#10;Power set: 0.00 MW&#10;Charge cyclic state: False&#10;Capital cost: 0.00 currency/MW&#10;Marginal cost: 0.00 currency/MWh&#10;&#10;Optimised nominal power: 0.00 MW&#10;Power time series: N/A MW">
<polygon fill="none" stroke="black" stroke-width="2" points="821.98,-220.6 715.11,-220.6 687.62,-184.6 794.49,-184.6 821.98,-220.6"/>
<text text-anchor="start" x="741.3" y="-199.9" font-family="Courier New" font-size="9.00" fill="red">hydro</text>
</a>
</g>
</g>
<!-- electricity (bus)&#45;&gt;hydro (storage unit) -->
<g id="edge6" class="edge">
<title>electricity (bus)&#45;&gt;hydro (storage unit)</title>
<path fill="none" stroke="black" stroke-width="1.5" d="M501.75,-323.29C551.87,-299.58 649.22,-253.54 707.48,-225.98"/>
<polygon fill="black" stroke="black" stroke-width="1.5" points="491.22,-328.27 499.76,-318.26 496.54,-325.48 501.96,-322.91 502.07,-323.14 502.18,-323.36 496.75,-325.93 504.38,-328.02 491.22,-328.27 491.22,-328.27"/>
<polygon fill="black" stroke="black" stroke-width="1.5" points="718.23,-220.9 709.69,-230.91 712.91,-223.69 707.49,-226.25 707.38,-226.03 707.27,-225.8 712.7,-223.24 705.07,-221.15 718.23,-220.9 718.23,-220.9"/>
</g>
<!-- industry (load) -->
<g id="node6" class="node">
<title>industry (load)</title>
<g id="a_node6"><a xlink:title="Load: industry&#10;Bus: hydrogen&#10;Carrier: &#10;Power set: 0.00 MW">
<polygon fill="none" stroke="black" stroke-width="2" points="118.8,0 179.46,-64.8 58.14,-64.8 118.8,0"/>
<text text-anchor="start" x="97.2" y="-40.5" font-family="Courier New" font-size="9.00" fill="red">industry</text>
</a>
</g>
</g>
<!-- hydrogen (bus)&#45;&gt;industry (load) -->
<g id="edge4" class="edge">
<title>hydrogen (bus)&#45;&gt;industry (load)</title>
<path fill="none" stroke="black" stroke-width="1.5" d="M118.8,-191.75C118.8,-166.58 118.8,-99.45 118.8,-65.09"/>
</g>
<!-- wind (generator) -->
<g id="node3" class="node">
<title>wind (generator)</title>
<g id="a_node3"><a xlink:title="Generator: wind&#10;Bus: electricity&#10;Carrier: &#10;Extendable nominal power: False&#10;Nominal power: 0.00 MW&#10;Power set: 0.00 MW&#10;Efficiency: 1.00&#10;Capital cost: 0.00 currency/MW&#10;Marginal cost: 0.00 currency/MWh&#10;&#10;Optimised nominal power: 0.00 MW&#10;Power time series: N/A MW">
<ellipse fill="none" stroke="black" stroke-width="2" cx="394.8" cy="-462.8" rx="39.6" ry="39.6"/>
<text text-anchor="start" x="384" y="-460.1" font-family="Courier New" font-size="9.00" fill="red">wind</text>
</a>
</g>
</g>
<!-- wind (generator)&#45;&gt;electricity (bus) -->
<g id="edge1" class="edge">
<title>wind (generator)&#45;&gt;electricity (bus)</title>
<path fill="none" stroke="black" stroke-width="1.5" d="M415.29,-428.63C431.51,-402.37 453.12,-367.4 463.59,-350.45"/>
</g>
<!-- solar (generator) -->
<g id="node4" class="node">
<title>solar (generator)</title>
<g id="a_node4"><a xlink:title="Generator: solar&#10;Bus: electricity&#10;Carrier: &#10;Extendable nominal power: False&#10;Nominal power: 0.00 MW&#10;Power set: 0.00 MW&#10;Efficiency: 1.00&#10;Capital cost: 0.00 currency/MW&#10;Marginal cost: 0.00 currency/MWh&#10;&#10;Optimised nominal power: 0.00 MW&#10;Power time series: N/A MW">
<ellipse fill="none" stroke="black" stroke-width="2" cx="545.8" cy="-462.8" rx="39.6" ry="39.6"/>
<text text-anchor="start" x="532.3" y="-460.1" font-family="Courier New" font-size="9.00" fill="red">solar</text>
</a>
</g>
</g>
<!-- solar (generator)&#45;&gt;electricity (bus) -->
<g id="edge2" class="edge">
<title>solar (generator)&#45;&gt;electricity (bus)</title>
<path fill="none" stroke="black" stroke-width="1.5" d="M525.03,-428.63C508.6,-402.37 486.7,-367.4 476.09,-350.45"/>
</g>
</g>
</svg>
