<?xml version="1.0" encoding="UTF-8" standalone="no"?>
<!DOCTYPE svg PUBLIC "-//W3C//DTD SVG 1.1//EN"
 "http://www.w3.org/Graphics/SVG/1.1/DTD/svg11.dtd">
<!-- Generated by graphviz version 8.0.5 (20230430.1635)
 -->
<!-- Title: My Dummy Network Pages: 1 -->
<svg width="670pt" height="532pt"
 viewBox="0.00 0.00 670.20 532.40" xmlns="http://www.w3.org/2000/svg" xmlns:xlink="http://www.w3.org/1999/xlink">
<g id="graph0" class="graph" transform="scale(1 1) rotate(0) translate(4 528.4)">
<title>My Dummy Network</title>
<g id="a_graph0"><a xlink:title="Network: My Dummy Network&#10;Buses: 3 (out of 3)&#10;Generators: 2 (out of 2)&#10;Loads: 1 (out of 1)&#10;Stores: 1 (out of 1)&#10;Storage units: 1 (out of 1)&#10;Links: 2 (out of 2)&#10;Lines: 0 (out of 0)&#10;Snapshots: 1">
<polygon fill="white" stroke="none" points="-4,4 -4,-528.4 666.2,-528.4 666.2,4 -4,4"/>
<text text-anchor="middle" x="331.1" y="-507.8" font-family="Times,serif" font-size="14.00">My Dummy Network</text>
<text text-anchor="middle" x="331.1" y="-459" font-family="Times,serif" font-size="14.00"> &#160;&#160;&#160;&#160;&#160;&#160;&#160;&#160;&#160;&#160;</text>
</a>
</g>
<!-- oil (bus) -->
<g id="node1" class="node">
<title>oil (bus)</title>
<g id="a_node1"><a xlink:title="Bus: oil&#10;Carrier: AC&#10;Unit: MW&#10;Generators: 1&#10;Loads: 0&#10;Stores: 0&#10;Storage units: 0&#10;Incoming links: 0&#10;Outgoing links: 1&#10;Lines: 0&#10;&#10;Power time series: N/A MW">
<polygon fill="none" stroke="none" stroke-width="7.3" points="662.2,-298.6 424.6,-298.6 424.6,-277 662.2,-277 662.2,-298.6"/>
<polyline fill="none" stroke="black" stroke-width="7.3" points="424.6,-277 662.2,-277"/>
<text text-anchor="start" x="536.2" y="-285.4" font-family="Courier New" font-size="8.00" fill="red">oil</text>
</a>
</g>
</g>
<!-- transport (bus) -->
<g id="node3" class="node">
<title>transport (bus)</title>
<g id="a_node3"><a xlink:title="Bus: transport&#10;Carrier: AC&#10;Unit: MW&#10;Generators: 0&#10;Loads: 1&#10;Stores: 0&#10;Storage units: 0&#10;Incoming links: 2&#10;Outgoing links: 0&#10;Lines: 0&#10;&#10;Power time series: N/A MW">
<polygon fill="none" stroke="none" stroke-width="7.3" points="643.2,-188.2 405.6,-188.2 405.6,-166.6 643.2,-166.6 643.2,-188.2"/>
<polyline fill="none" stroke="black" stroke-width="7.3" points="405.6,-166.6 643.2,-166.6"/>
<text text-anchor="start" x="502.8" y="-175" font-family="Courier New" font-size="8.00" fill="red">transport</text>
</a>
</g>
</g>
<!-- oil (bus)&#45;&gt;transport (bus) -->
<g id="edge6" class="edge">
<title>oil (bus)&#45;&gt;transport (bus)</title>
<g id="a_edge6"><a xlink:title="Link: ICEV&#10;From: oil (bus0)&#10;To: transport (bus1)&#10;Carrier: &#10;Extendable nominal power: False&#10;Nominal power: 0.00 MW&#10;Efficiency: 1.00&#10;Capital cost: 0.00 currency/MW&#10;Marginal cost: 0.00 currency/MWh&#10;&#10;Optimised nominal power: 0.00 MW&#10;Power time series (p0): N/A MW&#10;Power time series (p1): N/A MW">
<path fill="none" stroke="black" stroke-width="1.5" d="M541.65,-276.8C538.62,-259.54 532.36,-223.79 528.27,-200.47"/>
<polygon fill="black" stroke="black" stroke-width="1.5" points="526.2,-188.7 533.6,-199.58 527.49,-194.56 528.52,-200.47 528.28,-200.52 528.03,-200.56 526.99,-194.65 522.96,-201.45 526.2,-188.7 526.2,-188.7"/>
</a>
</g>
<text text-anchor="start" x="535.4" y="-233.8" font-family="Courier New" font-size="8.00" fill="red">ICEV</text>
</g>
<!-- electricity (bus) -->
<g id="node2" class="node">
<title>electricity (bus)</title>
<g id="a_node2"><a xlink:title="Bus: electricity&#10;Carrier: AC&#10;Unit: MW&#10;Generators: 1&#10;Loads: 0&#10;Stores: 1&#10;Storage units: 1&#10;Incoming links: 0&#10;Outgoing links: 1&#10;Lines: 0&#10;&#10;Power time series: N/A MW">
<polygon fill="none" stroke="none" stroke-width="7.3" points="352.2,-298.6 114.6,-298.6 114.6,-277 352.2,-277 352.2,-298.6"/>
<polyline fill="none" stroke="black" stroke-width="7.3" points="114.6,-277 352.2,-277"/>
<text text-anchor="start" x="207" y="-285.4" font-family="Courier New" font-size="8.00" fill="red">electricity</text>
</a>
</g>
</g>
<!-- electricity (bus)&#45;&gt;transport (bus) -->
<g id="edge7" class="edge">
<title>electricity (bus)&#45;&gt;transport (bus)</title>
<g id="a_edge7"><a xlink:title="Link: BEV&#10;From: electricity (bus0)&#10;To: transport (bus1)&#10;Carrier: &#10;Extendable nominal power: False&#10;Nominal power: 0.00 MW&#10;Efficiency: 1.00&#10;Capital cost: 0.00 currency/MW&#10;Marginal cost: 0.00 currency/MWh&#10;&#10;Optimised nominal power: 0.00 MW&#10;Power time series (p0): N/A MW&#10;Power time series (p1): N/A MW">
<path fill="none" stroke="black" stroke-width="1.5" d="M261.04,-276.5C313.18,-257.08 426.15,-215 485.77,-192.79"/>
<polygon fill="black" stroke="black" stroke-width="1.5" points="496.95,-188.63 487.59,-197.88 491.41,-190.96 485.79,-193.05 485.7,-192.82 485.61,-192.58 491.24,-190.49 483.82,-187.76 496.95,-188.63 496.95,-188.63"/>
</a>
</g>
<text text-anchor="start" x="379.4" y="-233.8" font-family="Courier New" font-size="8.00" fill="red">BEV</text>
</g>
<!-- battery (store) -->
<g id="node7" class="node">
<title>battery (store)</title>
<g id="a_node7"><a xlink:title="Store: battery&#10;Bus: electricity&#10;Carrier: &#10;Extendable nominal energy: False&#10;Nominal energy: 0.00 MWh&#10;Power set: 0.00 MW&#10;Cyclic energy: False&#10;Capital cost: 0.00 currency/MW&#10;Marginal cost: 0.00 currency/MWh&#10;&#10;Optimised nominal energy: 0.00 MWh&#10;Energy time series: N/A MWh&#10;Power time series: N/A MW">
<polygon fill="none" stroke="black" stroke-width="2" points="100.8,-195.4 0,-195.4 0,-159.4 100.8,-159.4 100.8,-195.4"/>
<text text-anchor="start" x="33.6" y="-175" font-family="Courier New" font-size="8.00" fill="red">battery</text>
</a>
</g>
</g>
<!-- electricity (bus)&#45;&gt;battery (store) -->
<g id="edge4" class="edge">
<title>electricity (bus)&#45;&gt;battery (store)</title>
<path fill="none" stroke="black" stroke-width="1.5" d="M206.06,-270.6C175.17,-252.31 124.65,-222.38 89.58,-201.61"/>
<polygon fill="black" stroke="black" stroke-width="1.5" points="216.18,-276.6 203.11,-275.13 210.89,-273.76 205.73,-270.7 205.86,-270.49 205.99,-270.27 211.15,-273.33 208.61,-265.84 216.18,-276.6 216.18,-276.6"/>
<polygon fill="black" stroke="black" stroke-width="1.5" points="79.68,-195.74 92.75,-197.21 84.96,-198.58 90.13,-201.64 90,-201.86 89.87,-202.07 84.71,-199.01 87.25,-206.5 79.68,-195.74 79.68,-195.74"/>
</g>
<!-- hydro (storage unit) -->
<g id="node8" class="node">
<title>hydro (storage unit)</title>
<g id="a_node8"><a xlink:title="Storage unit: hydro&#10;Bus: electricity&#10;Carrier: &#10;Extendable nominal power: False&#10;Nominal power: 0.00 MW&#10;Power set: 0.00 MW&#10;Charge cyclic state: False&#10;Capital cost: 0.00 currency/MW&#10;Marginal cost: 0.00 currency/MWh&#10;&#10;Optimised nominal power: 0.00 MW&#10;Power time series: N/A MW">
<polygon fill="none" stroke="black" stroke-width="2" points="307.58,-195.4 200.71,-195.4 173.22,-159.4 280.09,-159.4 307.58,-195.4"/>
<text text-anchor="start" x="228.4" y="-175" font-family="Courier New" font-size="8.00" fill="red">hydro</text>
</a>
</g>
</g>
<!-- electricity (bus)&#45;&gt;hydro (storage unit) -->
<g id="edge5" class="edge">
<title>electricity (bus)&#45;&gt;hydro (storage unit)</title>
<path fill="none" stroke="black" stroke-width="1.5" d="M234.81,-265.02C235.87,-248.56 237.34,-225.77 238.51,-207.71"/>
<polygon fill="black" stroke="black" stroke-width="1.5" points="234.05,-276.8 229.43,-264.47 234.18,-270.79 234.57,-264.81 234.82,-264.82 235.07,-264.84 234.68,-270.82 240.21,-265.17 234.05,-276.8 234.05,-276.8"/>
<polygon fill="black" stroke="black" stroke-width="1.5" points="239.28,-195.82 243.89,-208.14 239.14,-201.82 238.75,-207.81 238.5,-207.79 238.25,-207.78 238.64,-201.79 233.11,-207.44 239.28,-195.82 239.28,-195.82"/>
</g>
<!-- vehicle (load) -->
<g id="node6" class="node">
<title>vehicle (load)</title>
<g id="a_node6"><a xlink:title="Load: vehicle&#10;Bus: transport&#10;Carrier: &#10;Power set: 0.00 MW">
<polygon fill="none" stroke="black" stroke-width="2" points="524.4,0 578.4,-64.8 470.4,-64.8 524.4,0"/>
<text text-anchor="start" x="507.6" y="-40.8" font-family="Courier New" font-size="8.00" fill="red">vehicle</text>
</a>
</g>
</g>
<!-- transport (bus)&#45;&gt;vehicle (load) -->
<g id="edge3" class="edge">
<title>transport (bus)&#45;&gt;vehicle (load)</title>
<path fill="none" stroke="black" stroke-width="1.5" d="M524.4,-166.46C524.4,-144.97 524.4,-93.76 524.4,-64.89"/>
</g>
<!-- oil (generator) -->
<g id="node4" class="node">
<title>oil (generator)</title>
<g id="a_node4"><a xlink:title="Generator: oil&#10;Bus: oil&#10;Carrier: &#10;Extendable nominal power: False&#10;Nominal power: 0.00 MW&#10;Power set: 0.00 MW&#10;Efficiency: 1.00&#10;Capital cost: 0.00 currency/MW&#10;Marginal cost: 0.00 currency/MWh&#10;&#10;Optimised nominal power: 0.00 MW&#10;Power time series: N/A MW">
<ellipse fill="none" stroke="black" stroke-width="2" cx="543.4" cy="-411.2" rx="39.6" ry="39.6"/>
<text text-anchor="start" x="536.2" y="-408.8" font-family="Courier New" font-size="8.00" fill="red">oil</text>
</a>
</g>
</g>
<!-- oil (generator)&#45;&gt;oil (bus) -->
<g id="edge1" class="edge">
<title>oil (generator)&#45;&gt;oil (bus)</title>
<path fill="none" stroke="black" stroke-width="1.5" d="M543.4,-371.12C543.4,-345.75 543.4,-314.59 543.4,-298.88"/>
</g>
<!-- solar (generator) -->
<g id="node5" class="node">
<title>solar (generator)</title>
<g id="a_node5"><a xlink:title="Generator: solar&#10;Bus: electricity&#10;Carrier: &#10;Extendable nominal power: False&#10;Nominal power: 0.00 MW&#10;Power set: 0.00 MW&#10;Efficiency: 1.00&#10;Capital cost: 0.00 currency/MW&#10;Marginal cost: 0.00 currency/MWh&#10;&#10;Optimised nominal power: 0.00 MW&#10;Power time series: N/A MW">
<ellipse fill="none" stroke="black" stroke-width="2" cx="233.4" cy="-411.2" rx="39.6" ry="39.6"/>
<text text-anchor="start" x="221.4" y="-408.8" font-family="Courier New" font-size="8.00" fill="red">solar</text>
</a>
</g>
</g>
<!-- solar (generator)&#45;&gt;electricity (bus) -->
<g id="edge2" class="edge">
<title>solar (generator)&#45;&gt;electricity (bus)</title>
<path fill="none" stroke="black" stroke-width="1.5" d="M233.4,-371.12C233.4,-345.75 233.4,-314.59 233.4,-298.88"/>
</g>
</g>
</svg>
