<?xml version="1.0" encoding="UTF-8" standalone="no"?>
<!DOCTYPE svg PUBLIC "-//W3C//DTD SVG 1.1//EN"
 "http://www.w3.org/Graphics/SVG/1.1/DTD/svg11.dtd">
<!-- Generated by graphviz version 8.0.5 (20230430.1635)
 -->
<!-- Title: My Dummy Network Pages: 1 -->
<svg width="818pt" height="583pt"
 viewBox="0.00 0.00 817.98 582.80" xmlns="http://www.w3.org/2000/svg" xmlns:xlink="http://www.w3.org/1999/xlink">
<g id="graph0" class="graph" transform="scale(1 1) rotate(0) translate(4 578.8)">
<title>My Dummy Network</title>
<g id="a_graph0"><a xlink:title="Network: My Dummy Network&#10;Buses: 2 (out of 2)&#10;Generators: 2 (out of 2)&#10;Loads: 2 (out of 2)&#10;Stores: 1 (out of 1)&#10;Storage units: 1 (out of 1)&#10;Links: 1 (out of 1)&#10;Lines: 0 (out of 0)&#10;Snapshots: 1">
<polygon fill="white" stroke="none" points="-4,4 -4,-578.8 813.98,-578.8 813.98,4 -4,4"/>
<text text-anchor="middle" x="404.99" y="-558.2" font-family="Times,serif" font-size="14.00">My Dummy Network</text>
<text text-anchor="middle" x="404.99" y="-509.4" font-family="Times,serif" font-size="14.00"> &#160;&#160;&#160;&#160;&#160;&#160;&#160;&#160;&#160;&#160;</text>
</a>
</g>
<!-- electricity (bus) -->
<g id="node1" class="node">
<title>electricity (bus)</title>
<g id="a_node1"><a xlink:title="Bus: electricity&#10;Carrier: AC&#10;Unit: MW&#10;Generators: 2&#10;Loads: 1&#10;Stores: 1&#10;Storage units: 1&#10;Incoming links: 0&#10;Outgoing links: 1&#10;Lines: 0&#10;&#10;Power time series: N/A MW">
<polygon fill="none" stroke="none" stroke-width="7.3" points="579.6,-349 342,-349 342,-327.4 579.6,-327.4 579.6,-349"/>
<polyline fill="none" stroke="black" stroke-width="7.3" points="342,-327.4 579.6,-327.4"/>
<text text-anchor="start" x="434.4" y="-335.8" font-family="Courier New" font-size="8.00" fill="red">electricity</text>
</a>
</g>
</g>
<!-- hydrogen (bus) -->
<g id="node2" class="node">
<title>hydrogen (bus)</title>
<g id="a_node2"><a xlink:title="Bus: hydrogen&#10;Carrier: AC&#10;Unit: MW&#10;Generators: 0&#10;Loads: 1&#10;Stores: 0&#10;Storage units: 0&#10;Incoming links: 1&#10;Outgoing links: 0&#10;Lines: 0&#10;&#10;Power time series: N/A MW">
<polygon fill="none" stroke="none" stroke-width="7.3" points="237.6,-213.4 0,-213.4 0,-191.8 237.6,-191.8 237.6,-213.4"/>
<polyline fill="none" stroke="black" stroke-width="7.3" points="0,-191.8 237.6,-191.8"/>
<text text-anchor="start" x="99.6" y="-200.2" font-family="Courier New" font-size="8.00" fill="red">hydrogen</text>
</a>
</g>
</g>
<!-- electricity (bus)&#45;&gt;hydrogen (bus) -->
<g id="edge7" class="edge">
<title>electricity (bus)&#45;&gt;hydrogen (bus)</title>
<g id="a_edge7"><a xlink:title="Link: electrolysis&#10;From: electricity (bus0)&#10;To: hydrogen (bus1)&#10;Carrier: &#10;Extendable nominal power: False&#10;Nominal power: 0.00 MW&#10;Efficiency: 1.00&#10;Capital cost: 0.00 currency/MW&#10;Marginal cost: 0.00 currency/MWh&#10;&#10;Optimised nominal power: 0.00 MW&#10;Power time series (p0): N/A MW&#10;Power time series (p1): N/A MW">
<path fill="none" stroke="black" stroke-width="1.5" d="M434.53,-326.94C374.23,-303.38 225.72,-245.37 156.03,-218.15"/>
<polygon fill="black" stroke="black" stroke-width="1.5" points="145.16,-213.9 158.3,-213.23 150.84,-215.85 156.43,-218.03 156.34,-218.26 156.24,-218.5 150.66,-216.31 154.37,-223.29 145.16,-213.9 145.16,-213.9"/>
</a>
</g>
<text text-anchor="start" x="340.8" y="-284.2" font-family="Courier New" font-size="8.00" fill="red">electrolysis</text>
</g>
<!-- transport (load) -->
<g id="node5" class="node">
<title>transport (load)</title>
<g id="a_node5"><a xlink:title="Load: transport&#10;Bus: electricity&#10;Carrier: &#10;Power set: 0.00 MW">
<polygon fill="none" stroke="black" stroke-width="2" points="369.8,-159.4 430.28,-224.2 309.32,-224.2 369.8,-159.4"/>
<text text-anchor="start" x="348.2" y="-200.2" font-family="Courier New" font-size="8.00" fill="red">transport</text>
</a>
</g>
</g>
<!-- electricity (bus)&#45;&gt;transport (load) -->
<g id="edge3" class="edge">
<title>electricity (bus)&#45;&gt;transport (load)</title>
<path fill="none" stroke="black" stroke-width="1.5" d="M453.96,-327.16C439.16,-305.43 403.91,-253.68 384.05,-224.51"/>
</g>
<!-- battery (store) -->
<g id="node7" class="node">
<title>battery (store)</title>
<g id="a_node7"><a xlink:title="Store: battery&#10;Bus: electricity&#10;Carrier: &#10;Extendable nominal energy: False&#10;Nominal energy: 0.00 MWh&#10;Power set: 0.00 MW&#10;Cyclic energy: False&#10;Capital cost: 0.00 currency/MW&#10;Marginal cost: 0.00 currency/MWh&#10;&#10;Optimised nominal energy: 0.00 MWh&#10;Energy time series: N/A MWh&#10;Power time series: N/A MW">
<polygon fill="none" stroke="black" stroke-width="2" points="603.2,-220.6 502.4,-220.6 502.4,-184.6 603.2,-184.6 603.2,-220.6"/>
<text text-anchor="start" x="536" y="-200.2" font-family="Courier New" font-size="8.00" fill="red">battery</text>
</a>
</g>
</g>
<!-- electricity (bus)&#45;&gt;battery (store) -->
<g id="edge5" class="edge">
<title>electricity (bus)&#45;&gt;battery (store)</title>
<path fill="none" stroke="black" stroke-width="1.5" d="M474.31,-317.58C490.14,-294.59 516.45,-256.39 534.2,-230.62"/>
<polygon fill="black" stroke="black" stroke-width="1.5" points="467.71,-327.16 470.07,-314.21 470.91,-322.07 474.31,-317.13 474.52,-317.27 474.73,-317.42 471.32,-322.36 478.97,-320.34 467.71,-327.16 467.71,-327.16"/>
<polygon fill="black" stroke="black" stroke-width="1.5" points="540.99,-220.74 538.64,-233.69 537.8,-225.83 534.39,-230.77 534.19,-230.63 533.98,-230.48 537.39,-225.54 529.74,-227.56 540.99,-220.74 540.99,-220.74"/>
</g>
<!-- hydro (storage unit) -->
<g id="node8" class="node">
<title>hydro (storage unit)</title>
<g id="a_node8"><a xlink:title="Storage unit: hydro&#10;Bus: electricity&#10;Carrier: &#10;Extendable nominal power: False&#10;Nominal power: 0.00 MW&#10;Power set: 0.00 MW&#10;Charge cyclic state: False&#10;Capital cost: 0.00 currency/MW&#10;Marginal cost: 0.00 currency/MWh&#10;&#10;Optimised nominal power: 0.00 MW&#10;Power time series: N/A MW">
<polygon fill="none" stroke="black" stroke-width="2" points="809.98,-220.6 703.11,-220.6 675.62,-184.6 782.49,-184.6 809.98,-220.6"/>
<text text-anchor="start" x="730.8" y="-200.2" font-family="Courier New" font-size="8.00" fill="red">hydro</text>
</a>
</g>
</g>
<!-- electricity (bus)&#45;&gt;hydro (storage unit) -->
<g id="edge6" class="edge">
<title>electricity (bus)&#45;&gt;hydro (storage unit)</title>
<path fill="none" stroke="black" stroke-width="1.5" d="M493.24,-321.83C542.98,-298.27 638.34,-253.09 695.7,-225.92"/>
<polygon fill="black" stroke="black" stroke-width="1.5" points="482.46,-326.94 490.99,-316.92 487.78,-324.14 493.2,-321.57 493.3,-321.8 493.41,-322.03 487.99,-324.6 495.62,-326.68 482.46,-326.94 482.46,-326.94"/>
<polygon fill="black" stroke="black" stroke-width="1.5" points="706.29,-220.9 697.76,-230.91 700.98,-223.69 695.55,-226.26 695.45,-226.03 695.34,-225.81 700.76,-223.24 693.13,-221.15 706.29,-220.9 706.29,-220.9"/>
</g>
<!-- industry (load) -->
<g id="node6" class="node">
<title>industry (load)</title>
<g id="a_node6"><a xlink:title="Load: industry&#10;Bus: hydrogen&#10;Carrier: &#10;Power set: 0.00 MW">
<polygon fill="none" stroke="black" stroke-width="2" points="118.8,0 174.37,-64.8 63.23,-64.8 118.8,0"/>
<text text-anchor="start" x="99.6" y="-40.8" font-family="Courier New" font-size="8.00" fill="red">industry</text>
</a>
</g>
</g>
<!-- hydrogen (bus)&#45;&gt;industry (load) -->
<g id="edge4" class="edge">
<title>hydrogen (bus)&#45;&gt;industry (load)</title>
<path fill="none" stroke="black" stroke-width="1.5" d="M118.8,-191.75C118.8,-166.58 118.8,-99.45 118.8,-65.09"/>
</g>
<!-- wind (generator) -->
<g id="node3" class="node">
<title>wind (generator)</title>
<g id="a_node3"><a xlink:title="Generator: wind&#10;Bus: electricity&#10;Carrier: &#10;Extendable nominal power: False&#10;Nominal power: 0.00 MW&#10;Power set: 0.00 MW&#10;Efficiency: 1.00&#10;Capital cost: 0.00 currency/MW&#10;Marginal cost: 0.00 currency/MWh&#10;&#10;Optimised nominal power: 0.00 MW&#10;Power time series: N/A MW">
<ellipse fill="none" stroke="black" stroke-width="2" cx="385.8" cy="-461.6" rx="39.6" ry="39.6"/>
<text text-anchor="start" x="376.2" y="-459.2" font-family="Courier New" font-size="8.00" fill="red">wind</text>
</a>
</g>
</g>
<!-- wind (generator)&#45;&gt;electricity (bus) -->
<g id="edge1" class="edge">
<title>wind (generator)&#45;&gt;electricity (bus)</title>
<path fill="none" stroke="black" stroke-width="1.5" d="M406.29,-427.43C422.51,-401.17 444.12,-366.2 454.59,-349.25"/>
</g>
<!-- solar (generator) -->
<g id="node4" class="node">
<title>solar (generator)</title>
<g id="a_node4"><a xlink:title="Generator: solar&#10;Bus: electricity&#10;Carrier: &#10;Extendable nominal power: False&#10;Nominal power: 0.00 MW&#10;Power set: 0.00 MW&#10;Efficiency: 1.00&#10;Capital cost: 0.00 currency/MW&#10;Marginal cost: 0.00 currency/MWh&#10;&#10;Optimised nominal power: 0.00 MW&#10;Power time series: N/A MW">
<ellipse fill="none" stroke="black" stroke-width="2" cx="536.8" cy="-461.6" rx="39.6" ry="39.6"/>
<text text-anchor="start" x="524.8" y="-459.2" font-family="Courier New" font-size="8.00" fill="red">solar</text>
</a>
</g>
</g>
<!-- solar (generator)&#45;&gt;electricity (bus) -->
<g id="edge2" class="edge">
<title>solar (generator)&#45;&gt;electricity (bus)</title>
<path fill="none" stroke="black" stroke-width="1.5" d="M516.03,-427.43C499.6,-401.17 477.7,-366.2 467.09,-349.25"/>
</g>
</g>
</svg>
