<?xml version="1.0" encoding="UTF-8" standalone="no"?>
<!DOCTYPE svg PUBLIC "-//W3C//DTD SVG 1.1//EN"
 "http://www.w3.org/Graphics/SVG/1.1/DTD/svg11.dtd">
<!-- Generated by graphviz version 2.40.1 (20161225.0304)
 -->
<!-- Title: My Dummy Network Pages: 1 -->
<svg width="440pt" height="505pt"
 viewBox="0.00 0.00 440.00 505.00" xmlns="http://www.w3.org/2000/svg" xmlns:xlink="http://www.w3.org/1999/xlink">
<g id="graph0" class="graph" transform="scale(1 1) rotate(0) translate(4 501)">
<title>My Dummy Network</title>
<polygon fill="#ffffff" stroke="transparent" points="-4,4 -4,-501 436,-501 436,4 -4,4"/>
<text text-anchor="middle" x="216" y="-481.8" font-family="Times,serif" font-size="14.00" fill="#000000">My Dummy Network</text>
<text text-anchor="middle" x="216" y="-450.8" font-family="Times,serif" font-size="14.00" fill="#000000"> &#160;&#160;&#160;&#160;&#160;&#160;&#160;&#160;&#160;&#160;</text>
<!-- oil (bus) -->
<g id="node1" class="node">
<title>oil (bus)</title>
<g id="a_node1"><a xlink:title="Carrier: AC&#10;Unit: ">
<polygon fill="none" stroke="transparent" stroke-width="6" points="432,-291 252,-291 252,-269 432,-269 432,-291"/>
<polyline fill="none" stroke="#000000" stroke-width="6" points="252,-269 432,-269 "/>
<text text-anchor="middle" x="342" y="-278.1" font-family="Courier New" font-size="8.00" fill="#ff0000">oil</text>
</a>
</g>
</g>
<!-- transport (bus) -->
<g id="node3" class="node">
<title>transport (bus)</title>
<g id="a_node3"><a xlink:title="Carrier: AC&#10;Unit: ">
<polygon fill="none" stroke="transparent" stroke-width="6" points="406,-181 226,-181 226,-159 406,-159 406,-181"/>
<polyline fill="none" stroke="#000000" stroke-width="6" points="226,-159 406,-159 "/>
<text text-anchor="middle" x="316" y="-168.1" font-family="Courier New" font-size="8.00" fill="#ff0000">transport</text>
</a>
</g>
</g>
<!-- oil (bus)&#45;&gt;transport (bus) -->
<g id="edge6" class="edge">
<title>oil (bus)&#45;&gt;transport (bus)</title>
<g id="a_edge6"><a xlink:title="Carrier: &#10;Efficiency: 1.00">
<path fill="none" stroke="#000000" stroke-width="1.5" d="M339.3155,-268.6424C334.992,-250.3508 326.4202,-214.0855 320.9613,-190.9902"/>
<polygon fill="#000000" stroke="#000000" stroke-width="1.5" points="318.6312,-181.132 325.3109,-189.8287 320.0247,-185.9404 321.1748,-190.8064 320.9315,-190.8639 320.6882,-190.9214 319.5381,-186.0554 316.5522,-191.899 318.6312,-181.132 318.6312,-181.132"/>
</a>
</g>
<text text-anchor="middle" x="339" y="-226.6" font-family="Courier New" font-size="8.00" fill="#ff0000">ICE</text>
</g>
<!-- electricity (bus) -->
<g id="node2" class="node">
<title>electricity (bus)</title>
<g id="a_node2"><a xlink:title="Carrier: AC&#10;Unit: ">
<polygon fill="none" stroke="transparent" stroke-width="6" points="180,-291 0,-291 0,-269 180,-269 180,-291"/>
<polyline fill="none" stroke="#000000" stroke-width="6" points="0,-269 180,-269 "/>
<text text-anchor="middle" x="90" y="-278.1" font-family="Courier New" font-size="8.00" fill="#ff0000">electricity</text>
</a>
</g>
</g>
<!-- electricity (bus)&#45;&gt;transport (bus) -->
<g id="edge7" class="edge">
<title>electricity (bus)&#45;&gt;transport (bus)</title>
<g id="a_edge7"><a xlink:title="Carrier: &#10;Efficiency: 1.00">
<path fill="none" stroke="#000000" stroke-width="1.5" d="M112.9138,-268.8473C153.4584,-249.1132 237.9107,-208.0081 284.1127,-185.5204"/>
<polygon fill="#000000" stroke="#000000" stroke-width="1.5" points="293.3616,-181.0187 286.3394,-189.4413 288.9752,-183.4317 284.4795,-185.6199 284.37,-185.3952 284.2606,-185.1704 288.7564,-182.9821 282.4006,-181.349 293.3616,-181.0187 293.3616,-181.0187"/>
</a>
</g>
<text text-anchor="middle" x="211" y="-226.6" font-family="Courier New" font-size="8.00" fill="#ff0000">BEV</text>
</g>
<!-- battery (store) -->
<g id="node7" class="node">
<title>battery (store)</title>
<g id="a_node7"><a xlink:title="Carrier: ">
<polygon fill="none" stroke="#000000" stroke-width="2" points="137,-188 43,-188 43,-152 137,-152 137,-188"/>
<text text-anchor="middle" x="90" y="-168.1" font-family="Courier New" font-size="8.00" fill="#ff0000">battery</text>
</a>
</g>
</g>
<!-- electricity (bus)&#45;&gt;battery (store) -->
<g id="edge4" class="edge">
<title>electricity (bus)&#45;&gt;battery (store)</title>
<path fill="none" stroke="#000000" stroke-width="1.5" d="M72.7707,-268.6424C62.562,-252.098 60.3531,-220.8493 66.1438,-197.9413"/>
<polygon fill="#000000" stroke="#000000" stroke-width="1.5" points="69.2401,-188.3941 70.4356,-199.2946 67.9354,-193.2274 66.3929,-197.9835 66.1551,-197.9064 65.9172,-197.8292 67.4598,-193.0731 61.8745,-196.5181 69.2401,-188.3941 69.2401,-188.3941"/>
</g>
<!-- vehicle (load) -->
<g id="node6" class="node">
<title>vehicle (load)</title>
<g id="a_node6"><a xlink:title="Carrier: ">
<polygon fill="none" stroke="#000000" stroke-width="2" points="316,0 370.0439,-59.25 261.9561,-59.25 316,0"/>
<text text-anchor="middle" x="316" y="-37.6" font-family="Courier New" font-size="8.00" fill="#ff0000">vehicle</text>
</a>
</g>
</g>
<!-- transport (bus)&#45;&gt;vehicle (load) -->
<g id="edge3" class="edge">
<title>transport (bus)&#45;&gt;vehicle (load)</title>
<path fill="none" stroke="#000000" stroke-width="1.5" d="M316,-158.8736C316,-136.8073 316,-87.2368 316,-59.4133"/>
</g>
<!-- oil (generator) -->
<g id="node4" class="node">
<title>oil (generator)</title>
<g id="a_node4"><a xlink:title="Carrier: &#10;Efficiency: 1.00">
<ellipse fill="none" stroke="#000000" stroke-width="2" cx="342" cy="-403.5" rx="39.5" ry="39.5"/>
<text text-anchor="middle" x="342" y="-401.6" font-family="Courier New" font-size="8.00" fill="#ff0000">oil</text>
</a>
</g>
</g>
<!-- oil (generator)&#45;&gt;oil (bus) -->
<g id="edge1" class="edge">
<title>oil (generator)&#45;&gt;oil (bus)</title>
<path fill="none" stroke="#000000" stroke-width="1.5" d="M342,-363.744C342,-338.3591 342,-307.27 342,-291.0481"/>
</g>
<!-- solar (generator) -->
<g id="node5" class="node">
<title>solar (generator)</title>
<g id="a_node5"><a xlink:title="Carrier: &#10;Efficiency: 1.00">
<ellipse fill="none" stroke="#000000" stroke-width="2" cx="90" cy="-403.5" rx="39.5" ry="39.5"/>
<text text-anchor="middle" x="90" y="-401.6" font-family="Courier New" font-size="8.00" fill="#ff0000">solar</text>
</a>
</g>
</g>
<!-- solar (generator)&#45;&gt;electricity (bus) -->
<g id="edge2" class="edge">
<title>solar (generator)&#45;&gt;electricity (bus)</title>
<path fill="none" stroke="#000000" stroke-width="1.5" d="M90,-363.744C90,-338.3591 90,-307.27 90,-291.0481"/>
</g>
<!-- battery (store)&#45;&gt;electricity (bus) -->
<g id="edge5" class="edge">
<title>battery (store)&#45;&gt;electricity (bus)</title>
<path fill="none" stroke="#000000" stroke-width="1.5" d="M110.7599,-188.3941C118.8085,-208.0606 119.0712,-239.1641 111.548,-259.5772"/>
<polygon fill="#000000" stroke="#000000" stroke-width="1.5" points="107.2293,-268.6424 107.4677,-257.6791 109.1541,-264.0209 111.3045,-259.507 111.5302,-259.6145 111.7559,-259.722 109.6055,-264.236 115.5928,-261.5499 107.2293,-268.6424 107.2293,-268.6424"/>
</g>
</g>
</svg>
