<?xml version="1.0" encoding="UTF-8" standalone="no"?>
<!DOCTYPE svg PUBLIC "-//W3C//DTD SVG 1.1//EN"
 "http://www.w3.org/Graphics/SVG/1.1/DTD/svg11.dtd">
<!-- Generated by graphviz version 8.0.5 (20230430.1635)
 -->
<!-- Title: My Dummy Network Pages: 1 -->
<svg width="556pt" height="532pt"
 viewBox="0.00 0.00 555.60 532.40" xmlns="http://www.w3.org/2000/svg" xmlns:xlink="http://www.w3.org/1999/xlink">
<g id="graph0" class="graph" transform="scale(1 1) rotate(0) translate(4 528.4)">
<title>My Dummy Network</title>
<g id="a_graph0"><a xlink:title="Network: My Dummy Network&#10;Bus: 3&#10;Generators: 2&#10;Loads: 1&#10;Stores: 1&#10;Links: 2&#10;Lines: 0&#10;Snapshots: 1">
<polygon fill="white" stroke="none" points="-4,4 -4,-528.4 551.6,-528.4 551.6,4 -4,4"/>
<text text-anchor="middle" x="273.8" y="-507.8" font-family="Times,serif" font-size="14.00">My Dummy Network</text>
<text text-anchor="middle" x="273.8" y="-459" font-family="Times,serif" font-size="14.00"> &#160;&#160;&#160;&#160;&#160;&#160;&#160;&#160;&#160;&#160;</text>
</a>
</g>
<!-- oil (bus) -->
<g id="node1" class="node">
<title>oil (bus)</title>
<g id="a_node1"><a xlink:title="Bus: oil&#10;Carrier: AC&#10;Unit: &#10;Generators: 1&#10;Loads: 0&#10;Stores: 0&#10;Incoming links: 0&#10;Outgoing links: 1&#10;Lines: 0&#10;&#10;Power time series: N/A MW">
<polygon fill="none" stroke="none" stroke-width="7.3" points="547.6,-298.6 310,-298.6 310,-277 547.6,-277 547.6,-298.6"/>
<polyline fill="none" stroke="black" stroke-width="7.3" points="310,-277 547.6,-277"/>
<text text-anchor="start" x="421.6" y="-285.4" font-family="Courier New" font-size="8.00" fill="red">oil</text>
</a>
</g>
</g>
<!-- transport (bus) -->
<g id="node3" class="node">
<title>transport (bus)</title>
<g id="a_node3"><a xlink:title="Bus: transport&#10;Carrier: AC&#10;Unit: &#10;Generators: 0&#10;Loads: 1&#10;Stores: 0&#10;Incoming links: 2&#10;Outgoing links: 0&#10;Lines: 0&#10;&#10;Power time series: N/A MW">
<polygon fill="none" stroke="none" stroke-width="7.3" points="512.6,-188.2 275,-188.2 275,-166.6 512.6,-166.6 512.6,-188.2"/>
<polyline fill="none" stroke="black" stroke-width="7.3" points="275,-166.6 512.6,-166.6"/>
<text text-anchor="start" x="372.2" y="-175" font-family="Courier New" font-size="8.00" fill="red">transport</text>
</a>
</g>
</g>
<!-- oil (bus)&#45;&gt;transport (bus) -->
<g id="edge5" class="edge">
<title>oil (bus)&#45;&gt;transport (bus)</title>
<g id="a_edge5"><a xlink:title="Link: ICEV&#10;From: oil (bus0)&#10;To: transport (bus1)&#10;Carrier: &#10;Extendable nominal power: False&#10;Nominal power: 0.00 MW&#10;Efficiency: 1.00&#10;Capital cost: 0.00 currency/MW&#10;Marginal cost: 0.00 currency/MWh&#10;&#10;Optimised nominal power: 0.00 MW&#10;Power time series (p0): N/A MW&#10;Power time series (p1): N/A MW">
<path fill="none" stroke="black" stroke-width="1.5" d="M425.57,-276.8C419.95,-259.38 408.24,-223.13 400.72,-199.82"/>
<polygon fill="black" stroke="black" stroke-width="1.5" points="397.12,-188.7 405.95,-198.46 399.21,-194.33 401.05,-200.04 400.81,-200.12 400.57,-200.19 398.73,-194.48 395.67,-201.77 397.12,-188.7 397.12,-188.7"/>
</a>
</g>
<text text-anchor="start" x="413.8" y="-233.8" font-family="Courier New" font-size="8.00" fill="red">ICEV</text>
</g>
<!-- electricity (bus) -->
<g id="node2" class="node">
<title>electricity (bus)</title>
<g id="a_node2"><a xlink:title="Bus: electricity&#10;Carrier: AC&#10;Unit: &#10;Generators: 1&#10;Loads: 0&#10;Stores: 1&#10;Incoming links: 0&#10;Outgoing links: 1&#10;Lines: 0&#10;&#10;Power time series: N/A MW">
<polygon fill="none" stroke="none" stroke-width="7.3" points="237.6,-298.6 0,-298.6 0,-277 237.6,-277 237.6,-298.6"/>
<polyline fill="none" stroke="black" stroke-width="7.3" points="0,-277 237.6,-277"/>
<text text-anchor="start" x="92.4" y="-285.4" font-family="Courier New" font-size="8.00" fill="red">electricity</text>
</a>
</g>
</g>
<!-- electricity (bus)&#45;&gt;transport (bus) -->
<g id="edge6" class="edge">
<title>electricity (bus)&#45;&gt;transport (bus)</title>
<g id="a_edge6"><a xlink:title="Link: BEV&#10;From: electricity (bus0)&#10;To: transport (bus1)&#10;Carrier: &#10;Extendable nominal power: False&#10;Nominal power: 0.00 MW&#10;Efficiency: 1.00&#10;Capital cost: 0.00 currency/MW&#10;Marginal cost: 0.00 currency/MWh&#10;&#10;Optimised nominal power: 0.00 MW&#10;Power time series (p0): N/A MW&#10;Power time series (p1): N/A MW">
<path fill="none" stroke="black" stroke-width="1.5" d="M144.67,-276.6C193.71,-257.27 300.31,-215.25 356.86,-192.96"/>
<polygon fill="black" stroke="black" stroke-width="1.5" points="367.8,-188.65 358.61,-198.07 362.31,-191.08 356.72,-193.28 356.63,-193.05 356.54,-192.82 362.12,-190.62 354.65,-188.03 367.8,-188.65 367.8,-188.65"/>
</a>
</g>
<text text-anchor="start" x="256.8" y="-233.8" font-family="Courier New" font-size="8.00" fill="red">BEV</text>
</g>
<!-- battery (store) -->
<g id="node7" class="node">
<title>battery (store)</title>
<g id="a_node7"><a xlink:title="Store: battery&#10;Bus: electricity&#10;Carrier: &#10;Extendable nominal energy: False&#10;Nominal energy: 0.00 MWh&#10;Power set: 0.00 MW&#10;Cyclic energy: False&#10;Capital cost: 0.00 currency/MW&#10;Marginal cost: 0.00 currency/MWh&#10;&#10;Optimised nominal energy: 0.00 MWh&#10;Energy time series: N/A MWh&#10;Power time series: N/A MW">
<polygon fill="none" stroke="black" stroke-width="2" points="169.2,-195.4 68.4,-195.4 68.4,-159.4 169.2,-159.4 169.2,-195.4"/>
<text text-anchor="start" x="102" y="-175" font-family="Courier New" font-size="8.00" fill="red">battery</text>
</a>
</g>
</g>
<!-- electricity (bus)&#45;&gt;battery (store) -->
<g id="edge4" class="edge">
<title>electricity (bus)&#45;&gt;battery (store)</title>
<path fill="none" stroke="black" stroke-width="1.5" d="M118.8,-265.02C118.8,-248.56 118.8,-225.77 118.8,-207.71"/>
<polygon fill="black" stroke="black" stroke-width="1.5" points="118.8,-276.8 113.4,-264.8 118.55,-270.8 118.55,-264.8 118.8,-264.8 119.05,-264.8 119.05,-270.8 124.2,-264.8 118.8,-276.8 118.8,-276.8"/>
<polygon fill="black" stroke="black" stroke-width="1.5" points="118.8,-195.82 124.2,-207.82 119.05,-201.82 119.05,-207.82 118.8,-207.82 118.55,-207.82 118.55,-201.82 113.4,-207.82 118.8,-195.82 118.8,-195.82"/>
</g>
<!-- vehicle (load) -->
<g id="node6" class="node">
<title>vehicle (load)</title>
<g id="a_node6"><a xlink:title="Load: vehicle&#10;Bus: transport&#10;Carrier: &#10;Power set: 0.00 MW">
<polygon fill="none" stroke="black" stroke-width="2" points="393.8,0 447.8,-64.8 339.8,-64.8 393.8,0"/>
<text text-anchor="start" x="377" y="-40.8" font-family="Courier New" font-size="8.00" fill="red">vehicle</text>
</a>
</g>
</g>
<!-- transport (bus)&#45;&gt;vehicle (load) -->
<g id="edge3" class="edge">
<title>transport (bus)&#45;&gt;vehicle (load)</title>
<path fill="none" stroke="black" stroke-width="1.5" d="M393.8,-166.46C393.8,-144.97 393.8,-93.76 393.8,-64.89"/>
</g>
<!-- oil (generator) -->
<g id="node4" class="node">
<title>oil (generator)</title>
<g id="a_node4"><a xlink:title="Generator: oil&#10;Bus: oil&#10;Carrier: &#10;Extendable nominal power: False&#10;Nominal power: 0.00 MW&#10;Power set: 0.00 MW&#10;Efficiency: 1.00&#10;Capital cost: 0.00 currency/MW&#10;Marginal cost: 0.00 currency/MWh&#10;&#10;Optimised nominal power: 0.00 MW&#10;Power time series: N/A MW">
<ellipse fill="none" stroke="black" stroke-width="2" cx="428.8" cy="-411.2" rx="39.6" ry="39.6"/>
<text text-anchor="start" x="421.6" y="-408.8" font-family="Courier New" font-size="8.00" fill="red">oil</text>
</a>
</g>
</g>
<!-- oil (generator)&#45;&gt;oil (bus) -->
<g id="edge1" class="edge">
<title>oil (generator)&#45;&gt;oil (bus)</title>
<path fill="none" stroke="black" stroke-width="1.5" d="M428.8,-371.12C428.8,-345.75 428.8,-314.59 428.8,-298.88"/>
</g>
<!-- solar (generator) -->
<g id="node5" class="node">
<title>solar (generator)</title>
<g id="a_node5"><a xlink:title="Generator: solar&#10;Bus: electricity&#10;Carrier: &#10;Extendable nominal power: False&#10;Nominal power: 0.00 MW&#10;Power set: 0.00 MW&#10;Efficiency: 1.00&#10;Capital cost: 0.00 currency/MW&#10;Marginal cost: 0.00 currency/MWh&#10;&#10;Optimised nominal power: 0.00 MW&#10;Power time series: N/A MW">
<ellipse fill="none" stroke="black" stroke-width="2" cx="118.8" cy="-411.2" rx="39.6" ry="39.6"/>
<text text-anchor="start" x="106.8" y="-408.8" font-family="Courier New" font-size="8.00" fill="red">solar</text>
</a>
</g>
</g>
<!-- solar (generator)&#45;&gt;electricity (bus) -->
<g id="edge2" class="edge">
<title>solar (generator)&#45;&gt;electricity (bus)</title>
<path fill="none" stroke="black" stroke-width="1.5" d="M118.8,-371.12C118.8,-345.75 118.8,-314.59 118.8,-298.88"/>
</g>
</g>
</svg>
